<?xml version="1.0" encoding="iso-8859-1"?>
<!-- Generator: Adobe Illustrator 18.0.0, SVG Export Plug-In . SVG Version: 6.00 Build 0)  -->
<!DOCTYPE svg PUBLIC "-//W3C//DTD SVG 1.1//EN" "http://www.w3.org/Graphics/SVG/1.1/DTD/svg11.dtd">
<svg version="1.1" id="Capa_1" xmlns="http://www.w3.org/2000/svg" xmlns:xlink="http://www.w3.org/1999/xlink" x="0px" y="0px"
	 viewBox="0 0 476.478 476.478" style="enable-background:new 0 0 476.478 476.478;" xml:space="preserve">
<path d="M255.25,17.009c-60.892,0-118.708,25.546-160.024,68.721l-27.289-49.44c-1.808-3.276-5.402-5.136-9.104-4.737
	c-3.727,0.415-6.817,2.99-7.88,6.581L0.381,210.286c-0.963,3.227-0.066,6.749,2.331,9.142c2.392,2.395,5.896,3.292,9.137,2.329
	l172.138-50.59c3.588-1.047,6.199-4.154,6.598-7.861c0.417-3.721-1.443-7.295-4.737-9.106l-55.722-30.743
	c31.927-34.637,77.196-55.393,125.125-55.393c93.83,0,170.177,76.349,170.177,170.178c0,93.831-76.347,170.177-170.177,170.177
	c-42.128,0-82.566-15.521-113.842-43.69c-10.453-9.441-26.62-8.609-36.043,1.876c-9.441,10.472-8.591,26.608,1.875,36.049
	c40.685,36.644,93.231,56.817,148.01,56.817c121.983,0,221.229-99.248,221.229-221.229
	C476.478,116.258,377.233,17.009,255.25,17.009z"/>
<g>
</g>
<g>
</g>
<g>
</g>
<g>
</g>
<g>
</g>
<g>
</g>
<g>
</g>
<g>
</g>
<g>
</g>
<g>
</g>
<g>
</g>
<g>
</g>
<g>
</g>
<g>
</g>
<g>
</g>
</svg>
