<?xml version="1.0" encoding="iso-8859-1"?>
<!-- Generator: Adobe Illustrator 19.0.0, SVG Export Plug-In . SVG Version: 6.00 Build 0)  -->
<svg version="1.1" id="Layer_1" xmlns="http://www.w3.org/2000/svg" xmlns:xlink="http://www.w3.org/1999/xlink" x="0px" y="0px"
	 viewBox="0 0 480.8 480.8" style="enable-background:new 0 0 480.8 480.8;" xml:space="preserve">
<path style="fill:#4C5254;" d="M364.4,423.2c0,41.6-29.6,56.8-71.2,56.8h-66.4c-41.6,0-78.4-15.2-78.4-56.8V56.8
	c0-41.6,36.8-56.8,78.4-56.8h66.4c41.6,0,71.2,15.2,71.2,56.8V423.2z"/>
<path style="fill:#2F423F;" d="M293.2,0c41.6,0,71.2,15.2,71.2,56.8V424c0,41.6-28.8,56.8-74.4,56.8"/>
<path style="fill:#3CC676;" d="M404.4,308.8c0,41.6-33.6,83.2-75.2,83.2H183.6c-41.6,0-75.2-41.6-75.2-83.2V163.2
	c0-41.6,33.6-75.2,75.2-75.2h145.6c41.6,0,75.2,33.6,75.2,75.2V308.8z"/>
<path style="fill:#0AA06E;" d="M188.4,88h144.8c41.6,0,71.2,37.6,71.2,78.4v146.4c0,41.6-40,78.4-72.8,78.4"/>
<path style="fill:#4C5254;" d="M380.4,298.4c0,32.8-28.8,61.6-62.4,61.6H202c-32.8,0-61.6-28.8-61.6-61.6V181.6
	c0-32.8,28-61.6,61.6-61.6h116.8c32.8,0,62.4,28.8,62.4,61.6v116.8H380.4z"/>
<path style="fill:#2F423F;" d="M204.4,120H318c32.8,0,62.4,28.8,62.4,61.6v116.8c0,32.8-24.8,61.6-57.6,61.6"/>
<g>
	<path style="fill:#F7F7EB;" d="M210.8,213.6v-16h-27.2V192l26.4-37.6h8.8v36.8h8v6.4h-8v16L210.8,213.6L210.8,213.6z M210.8,191.2
		V172c0-3.2,0-6.4,0-8.8l0,0c-1.6,3.2-3.2,5.6-4.8,8.8l-14.4,20l0,0h19.2V191.2z"/>
	<path style="fill:#F7F7EB;" d="M233.2,176.8c0-3.2,2.4-5.6,5.6-5.6c3.2,0,5.6,2.4,5.6,5.6c0,3.2-2.4,5.6-5.6,5.6
		C235.6,182.4,233.2,180,233.2,176.8z M233.2,208.8c0-3.2,2.4-5.6,5.6-5.6c3.2,0,5.6,2.4,5.6,5.6c0,3.2-2.4,5.6-5.6,5.6
		C235.6,214.4,233.2,212,233.2,208.8z"/>
	<path style="fill:#F7F7EB;" d="M250.8,213.6V208l6.4-6.4c15.2-14.4,21.6-21.6,21.6-30.4c0-5.6-3.2-11.2-12-11.2
		c-5.6,0-9.6,2.4-12.8,4.8l-1.6-5.6c4-3.2,9.6-5.6,16.8-5.6c12.8,0,17.6,8.8,17.6,16.8c0,11.2-8,19.2-20,31.2l-4.8,4l0,0h26.4v6.4
		h-37.6V213.6z"/>
	<path style="fill:#F7F7EB;" d="M336.4,183.2c0,20-7.2,31.2-20,31.2c-11.2,0-19.2-10.4-19.2-30.4s8.8-30.4,20-30.4
		C329.2,153.6,336.4,164.8,336.4,183.2z M304.4,184c0,15.2,4.8,24,12,24c8,0,12-9.6,12-24.8c0-14.4-4-24-12-24
		C310,160,304.4,168,304.4,184z"/>
</g>
<circle style="fill:#FFC114;" cx="259.6" cy="278.4" r="39.2"/>
<path style="fill:#FCA12A;" d="M287.6,251.2c15.2,15.2,15.2,40,0,55.2s-40,15.2-55.2,0"/>
<circle style="fill:#9090DD;" cx="188.4" cy="278.4" r="20"/>
<path style="fill:#6965A8;" d="M202,264c8,8,8,20.8,0,28.8s-20.8,8-28.8,0"/>
<circle style="fill:#3AC2F2;" cx="331.6" cy="278.4" r="20"/>
<path style="fill:#009CC6;" d="M346,264c8,8,8,20.8,0,28.8s-20.8,8-28.8,0"/>
<path style="fill:#D6D6D6;" d="M108.4,258.4c0,8.8-7.2,16-16,16l0,0c-8.8,0-16-7.2-16-16v-36c0-8.8,7.2-16,16-16l0,0
	c8.8,0,16,7.2,16,16V258.4z"/>
<path style="fill:#BCBCBC;" d="M76.4,220.8c0-8.8,7.2-15.2,16.8-15.2l0,0c8.8,0,15.2,7.2,15.2,16V256"/>
<g>
</g>
<g>
</g>
<g>
</g>
<g>
</g>
<g>
</g>
<g>
</g>
<g>
</g>
<g>
</g>
<g>
</g>
<g>
</g>
<g>
</g>
<g>
</g>
<g>
</g>
<g>
</g>
<g>
</g>
</svg>
