<?xml version="1.0" encoding="UTF-8" standalone="no"?>
<svg
   xmlns:dc="http://purl.org/dc/elements/1.1/"
   xmlns:cc="http://creativecommons.org/ns#"
   xmlns:rdf="http://www.w3.org/1999/02/22-rdf-syntax-ns#"
   xmlns:svg="http://www.w3.org/2000/svg"
   xmlns="http://www.w3.org/2000/svg"
   xmlns:sodipodi="http://sodipodi.sourceforge.net/DTD/sodipodi-0.dtd"
   xmlns:inkscape="http://www.inkscape.org/namespaces/inkscape"
   width="1164pt"
   height="864pt"
   viewBox="0 0 1164 864"
   version="1.1"
   id="svg2"
   inkscape:version="0.48.2 r9819"
   sodipodi:docname="Throughabout.svg">
  <metadata
     id="metadata79">
    <rdf:RDF>
      <cc:Work
         rdf:about="">
        <dc:format>image/svg+xml</dc:format>
        <dc:type
           rdf:resource="http://purl.org/dc/dcmitype/StillImage" />
      </cc:Work>
    </rdf:RDF>
  </metadata>
  <defs
     id="defs77" />
  <sodipodi:namedview
     pagecolor="#ffffff"
     bordercolor="#666666"
     borderopacity="1"
     objecttolerance="10"
     gridtolerance="10"
     guidetolerance="10"
     inkscape:pageopacity="0"
     inkscape:pageshadow="2"
     inkscape:window-width="780"
     inkscape:window-height="545"
     id="namedview75"
     showgrid="false"
     inkscape:zoom="0.6180637"
     inkscape:cx="727.5"
     inkscape:cy="22.254017"
     inkscape:window-x="0"
     inkscape:window-y="26"
     inkscape:window-maximized="0"
     inkscape:current-layer="svg2" />
  <g
     id="surface23500"
     transform="matrix(1.0273458,0,0,1.0273458,-9.8644068,-7.3220339)">
    <rect
       x="0"
       y="0"
       width="1164"
       height="864"
       style="fill:#7dd4a3;fill-opacity:1;stroke:none"
       id="rect5" />
    <path
       style="fill:#7dd4a3;fill-opacity:1;fill-rule:evenodd;stroke:#7dd4a3;stroke-width:0.2;stroke-linecap:butt;stroke-linejoin:miter;stroke-miterlimit:10;stroke-opacity:1"
       d="m -6,-14 57,0 0,42 -57,0 z m 0,0"
       transform="matrix(20,0,0,20,132,292)"
       id="path7"
       inkscape:connector-curvature="0" />
    <path
       style="fill:none;stroke:#ffffff;stroke-width:1.5;stroke-linecap:butt;stroke-linejoin:miter;stroke-miterlimit:10;stroke-opacity:1"
       d="m 22.5,17 0,0 c 5.522852,0 10,-4.477148 10,-10 0,-5.522852 -4.477148,-10 -10,-10"
       transform="matrix(20,0,0,20,132,292)"
       id="path9"
       inkscape:connector-curvature="0" />
    <path
       style="fill:none;stroke:#ffffff;stroke-width:1.5;stroke-linecap:butt;stroke-linejoin:miter;stroke-miterlimit:10;stroke-opacity:1"
       d="m 22.5,-3 0,0 c -5.522852,0 -10,4.477148 -10,10 0,5.522852 4.477148,10 10,10"
       transform="matrix(20,0,0,20,132,292)"
       id="path11"
       inkscape:connector-curvature="0" />
    <path
       style="fill:none;stroke:#ffffff;stroke-width:1.20000005;stroke-linecap:butt;stroke-linejoin:miter;stroke-miterlimit:10;stroke-opacity:1"
       d="m 51,5.5 -57,0"
       transform="matrix(20,0,0,20,132,292)"
       id="path13"
       inkscape:connector-curvature="0" />
    <path
       style="fill:none;stroke:#ffffff;stroke-width:1.20000005;stroke-linecap:butt;stroke-linejoin:miter;stroke-miterlimit:10;stroke-opacity:1"
       d="m 51,8.5 -57,0"
       transform="matrix(20,0,0,20,132,292)"
       id="path15"
       inkscape:connector-curvature="0" />
    <path
       style="fill:none;stroke:#ffffff;stroke-width:1.20000005;stroke-linecap:butt;stroke-linejoin:miter;stroke-miterlimit:10;stroke-opacity:1"
       d="M 51,9 -6,9"
       transform="matrix(20,0,0,20,132,292)"
       id="path17"
       inkscape:connector-curvature="0" />
    <path
       style="fill:none;stroke:#ffffff;stroke-width:1.20000005;stroke-linecap:butt;stroke-linejoin:miter;stroke-miterlimit:10;stroke-opacity:1"
       d="M 51,8 -6,8"
       transform="matrix(20,0,0,20,132,292)"
       id="path19"
       inkscape:connector-curvature="0" />
    <path
       style="fill:none;stroke:#ffffff;stroke-width:1.20000005;stroke-linecap:butt;stroke-linejoin:miter;stroke-miterlimit:10;stroke-opacity:1"
       d="M 51,6 -6,6"
       transform="matrix(20,0,0,20,132,292)"
       id="path21"
       inkscape:connector-curvature="0" />
    <path
       style="fill:none;stroke:#ffffff;stroke-width:1.20000005;stroke-linecap:butt;stroke-linejoin:miter;stroke-miterlimit:10;stroke-opacity:1"
       d="M 51,5 -6,5"
       transform="matrix(20,0,0,20,132,292)"
       id="path23"
       inkscape:connector-curvature="0" />
    <path
       style="fill:none;stroke:#ffffff;stroke-width:1.20000005;stroke-linecap:butt;stroke-linejoin:miter;stroke-miterlimit:10;stroke-opacity:1"
       d="m 22.5,-14 0,6.5"
       transform="matrix(20,0,0,20,132,292)"
       id="path25"
       inkscape:connector-curvature="0" />
    <path
       style="fill:none;stroke:#ffffff;stroke-width:1.20000005;stroke-linecap:butt;stroke-linejoin:miter;stroke-miterlimit:10;stroke-opacity:1"
       d="m 22,-3 0,-11"
       transform="matrix(20,0,0,20,132,292)"
       id="path27"
       inkscape:connector-curvature="0" />
    <path
       style="fill:none;stroke:#ffffff;stroke-width:1.20000005;stroke-linecap:butt;stroke-linejoin:miter;stroke-miterlimit:10;stroke-opacity:1"
       d="m 23,-3 0,-11"
       transform="matrix(20,0,0,20,132,292)"
       id="path29"
       inkscape:connector-curvature="0" />
    <path
       style="fill:none;stroke:#ffffff;stroke-width:1.20000005;stroke-linecap:butt;stroke-linejoin:miter;stroke-miterlimit:10;stroke-opacity:1"
       d="m 22.5,21.5 0,6.5"
       transform="matrix(20,0,0,20,132,292)"
       id="path31"
       inkscape:connector-curvature="0" />
    <path
       style="fill:none;stroke:#ffffff;stroke-width:1.20000005;stroke-linecap:butt;stroke-linejoin:miter;stroke-miterlimit:10;stroke-opacity:1"
       d="M 22,28 22,17"
       transform="matrix(20,0,0,20,132,292)"
       id="path33"
       inkscape:connector-curvature="0" />
    <path
       style="fill:none;stroke:#ffffff;stroke-width:1.20000005;stroke-linecap:butt;stroke-linejoin:miter;stroke-miterlimit:10;stroke-opacity:1"
       d="M 23,28 23,17"
       transform="matrix(20,0,0,20,132,292)"
       id="path35"
       inkscape:connector-curvature="0" />
    <path
       style="fill:none;stroke:#515151;stroke-width:0.40000001;stroke-linecap:butt;stroke-linejoin:miter;stroke-miterlimit:10;stroke-opacity:1;stroke-dasharray:1, 1"
       d="m 51,5.5 -57,0"
       transform="matrix(20,0,0,20,132,292)"
       id="path37"
       inkscape:connector-curvature="0" />
    <path
       style="fill:none;stroke:#515151;stroke-width:0.40000001;stroke-linecap:butt;stroke-linejoin:miter;stroke-miterlimit:10;stroke-opacity:1;stroke-dasharray:1, 1"
       d="m 51,8.5 -57,0"
       transform="matrix(20,0,0,20,132,292)"
       id="path39"
       inkscape:connector-curvature="0" />
    <path
       style="fill:none;stroke:#515151;stroke-width:0.80000001;stroke-linecap:butt;stroke-linejoin:miter;stroke-miterlimit:10;stroke-opacity:1"
       d="M 51,9 -6,9"
       transform="matrix(20,0,0,20,132,292)"
       id="path41"
       inkscape:connector-curvature="0" />
    <path
       style="fill:none;stroke:#515151;stroke-width:0.80000001;stroke-linecap:butt;stroke-linejoin:miter;stroke-miterlimit:10;stroke-opacity:1"
       d="M 51,8 -6,8"
       transform="matrix(20,0,0,20,132,292)"
       id="path43"
       inkscape:connector-curvature="0" />
    <path
       style="fill:none;stroke:#515151;stroke-width:0.80000001;stroke-linecap:butt;stroke-linejoin:miter;stroke-miterlimit:10;stroke-opacity:1"
       d="M 51,6 -6,6"
       transform="matrix(20,0,0,20,132,292)"
       id="path45"
       inkscape:connector-curvature="0" />
    <path
       style="fill:none;stroke:#515151;stroke-width:0.80000001;stroke-linecap:butt;stroke-linejoin:miter;stroke-miterlimit:10;stroke-opacity:1"
       d="M 51,5 -6,5"
       transform="matrix(20,0,0,20,132,292)"
       id="path47"
       inkscape:connector-curvature="0" />
    <path
       style="fill:none;stroke:#515151;stroke-width:0.40000001;stroke-linecap:butt;stroke-linejoin:miter;stroke-miterlimit:10;stroke-opacity:1;stroke-dasharray:1, 1"
       d="m 22.5,17.5 0,10.5"
       transform="matrix(20,0,0,20,132,292)"
       id="path49"
       inkscape:connector-curvature="0" />
    <path
       style="fill:none;stroke:#515151;stroke-width:0.80000001;stroke-linecap:butt;stroke-linejoin:miter;stroke-miterlimit:10;stroke-opacity:1"
       d="M 22,28 22,17.5"
       transform="matrix(20,0,0,20,132,292)"
       id="path51"
       inkscape:connector-curvature="0" />
    <path
       style="fill:none;stroke:#515151;stroke-width:0.80000001;stroke-linecap:butt;stroke-linejoin:miter;stroke-miterlimit:10;stroke-opacity:1"
       d="M 23,28 23,17.5"
       transform="matrix(20,0,0,20,132,292)"
       id="path53"
       inkscape:connector-curvature="0" />
    <path
       style="fill:none;stroke:#ffffff;stroke-width:0.30000001;stroke-linecap:butt;stroke-linejoin:miter;stroke-miterlimit:10;stroke-opacity:1"
       d="m 22.6,18 0.8,0"
       transform="matrix(20,0,0,20,132,292)"
       id="path55"
       inkscape:connector-curvature="0" />
    <path
       style="fill:none;stroke:#ffffff;stroke-width:0.2;stroke-linecap:butt;stroke-linejoin:miter;stroke-miterlimit:10;stroke-opacity:1"
       d="m 22.5,17.7 0.0064,0.924414"
       transform="matrix(20,0,0,20,132,292)"
       id="path57"
       inkscape:connector-curvature="0" />
    <path
       style="fill:none;stroke:#515151;stroke-width:0.40000001;stroke-linecap:butt;stroke-linejoin:miter;stroke-miterlimit:10;stroke-opacity:1;stroke-dasharray:1, 1"
       d="m 22.5,-14 0,10.5"
       transform="matrix(20,0,0,20,132,292)"
       id="path59"
       inkscape:connector-curvature="0" />
    <path
       style="fill:none;stroke:#515151;stroke-width:0.80000001;stroke-linecap:butt;stroke-linejoin:miter;stroke-miterlimit:10;stroke-opacity:1"
       d="M 22,-3.5 22,-14"
       transform="matrix(20,0,0,20,132,292)"
       id="path61"
       inkscape:connector-curvature="0" />
    <path
       style="fill:none;stroke:#515151;stroke-width:0.80000001;stroke-linecap:butt;stroke-linejoin:miter;stroke-miterlimit:10;stroke-opacity:1"
       d="m 23,-3 0,-11"
       transform="matrix(20,0,0,20,132,292)"
       id="path63"
       inkscape:connector-curvature="0" />
    <path
       style="fill:none;stroke:#ffffff;stroke-width:0.30000001;stroke-linecap:butt;stroke-linejoin:miter;stroke-miterlimit:10;stroke-opacity:1"
       d="m 21.5,-4 1,0"
       transform="matrix(20,0,0,20,132,292)"
       id="path65"
       inkscape:connector-curvature="0" />
    <path
       style="fill:none;stroke:#515151;stroke-width:1.20000005;stroke-linecap:butt;stroke-linejoin:miter;stroke-miterlimit:10;stroke-opacity:1"
       d="m 22.5,17 0,0 c 5.522852,0 10,-4.477148 10,-10 0,-5.522852 -4.477148,-10 -10,-10"
       transform="matrix(20,0,0,20,132,292)"
       id="path67"
       inkscape:connector-curvature="0" />
    <path
       style="fill:none;stroke:#515151;stroke-width:1.20000005;stroke-linecap:butt;stroke-linejoin:miter;stroke-miterlimit:10;stroke-opacity:1"
       d="m 22.5,-3 0,0 c -5.522852,0 -10,4.477148 -10,10 0,5.522852 4.477148,10 10,10"
       transform="matrix(20,0,0,20,132,292)"
       id="path69"
       inkscape:connector-curvature="0" />
    <path
       style="fill:none;stroke:#ffffff;stroke-width:0.30000001;stroke-linecap:butt;stroke-linejoin:miter;stroke-miterlimit:10;stroke-opacity:1"
       d="m 31.4,9.6 1.4,0"
       transform="matrix(20,0,0,20,132,292)"
       id="path71"
       inkscape:connector-curvature="0" />
    <path
       style="fill:none;stroke:#ffffff;stroke-width:0.30000001;stroke-linecap:butt;stroke-linejoin:miter;stroke-miterlimit:10;stroke-opacity:1"
       d="m 12.2,4.2 1.4,0"
       transform="matrix(20,0,0,20,132,292)"
       id="path73"
       inkscape:connector-curvature="0" />
  </g>
</svg>
